<svg width="14" height="15" viewBox="0 0 14 15" fill="none" xmlns="http://www.w3.org/2000/svg">
<g clip-path="url(#clip0_2_798)">
<path d="M10.3384 2.55559C10.6053 2.41731 10.7902 2.12551 10.7902 1.78684C10.7902 1.56058 10.7063 1.34358 10.5569 1.18359C10.4076 1.0236 10.2051 0.933716 9.99391 0.933716C9.78273 0.933716 9.5802 1.0236 9.43087 1.18359C9.28154 1.34358 9.19765 1.56058 9.19765 1.78684C9.19765 2.1302 9.38687 2.42434 9.65922 2.56028C9.34422 4.3884 8.86078 5.74895 7.06156 6.03958C7.06156 6.03958 7.54609 8.63528 9.81234 8.63528C12.0786 8.63528 12.3083 6.06536 12.3083 6.06536C10.4697 6.16614 10.3144 3.68997 10.3384 2.55559Z" fill="#F19534"/>
<path d="M3.79985 2.55559C3.53298 2.41731 3.34813 2.12551 3.34813 1.78684C3.34813 1.56058 3.43202 1.34358 3.58135 1.18359C3.73067 1.0236 3.9332 0.933716 4.14438 0.933716C4.35556 0.933716 4.55809 1.0236 4.70742 1.18359C4.85674 1.34358 4.94063 1.56058 4.94063 1.78684C4.94063 2.1302 4.75141 2.42434 4.47907 2.56028C4.79407 4.3884 5.27751 5.74895 7.07673 6.03958C7.07673 6.03958 6.59219 8.63528 4.32594 8.63528C2.05969 8.63528 1.8311 6.06653 1.8311 6.06653C3.6686 6.16614 3.82391 3.68997 3.79985 2.55559Z" fill="#F19534"/>
<path d="M9.78165 8.63571C9.7915 8.63571 9.80134 8.63688 9.81119 8.63688C10.4357 8.63688 10.9049 8.44117 11.2571 8.15875L9.78165 8.63571Z" fill="#FFCA28"/>
<path d="M13.0424 1.97526C12.6782 1.92253 12.3304 2.29401 12.2669 2.80261C12.2276 3.12019 12.3074 3.41667 12.4616 3.60769L12.1991 4.7737C12.1991 4.7737 11.7977 7.52878 9.76992 8.07253C8.14898 8.50729 7.56164 5.328 7.41945 4.34597C7.72788 4.1819 7.94117 3.84206 7.94117 3.44714C7.94117 2.89284 7.52226 2.44401 7.00492 2.44401C6.48757 2.44401 6.06867 2.89284 6.06867 3.44714C6.06867 3.8444 6.28523 4.18776 6.59913 4.34948C6.48648 5.31862 5.98991 8.39245 4.23991 8.07136C2.46366 7.7444 1.6882 4.53933 1.50882 3.66745C1.7221 3.47995 1.84132 3.14948 1.79757 2.7944C1.73413 2.28464 1.35788 1.91901 0.957571 1.97644C0.557258 2.03386 0.284915 2.49323 0.348352 3.00183C0.39429 3.37214 0.606477 3.66628 0.872258 3.77761L2.26351 13.0389C2.26351 13.0389 3.47757 14.0667 7.00492 14.0667C10.5323 14.0667 11.7463 13.0389 11.7463 13.0389L13.1409 3.753C13.3662 3.62644 13.5434 3.34167 13.5871 2.99245C13.6516 2.48269 13.4077 2.028 13.0424 1.97526Z" fill="#FFCA28"/>
<path d="M7.04832 11.7085C7.63667 11.7085 8.11363 11.0993 8.11363 10.3479C8.11363 9.5965 7.63667 8.98737 7.04832 8.98737C6.45996 8.98737 5.983 9.5965 5.983 10.3479C5.983 11.0993 6.45996 11.7085 7.04832 11.7085Z" fill="#26A69A"/>
<path d="M7.04893 9.32321C7.0905 9.37243 7.12768 9.46266 7.04893 9.63845C6.97018 9.81423 6.54581 10.0521 6.46815 10.1002C6.3905 10.1494 6.33909 10.1271 6.31503 10.1072C6.20018 10.0088 6.24393 9.7861 6.31831 9.65016C6.478 9.35602 6.81597 9.05251 7.04893 9.32321Z" fill="#69F0AE"/>
<path d="M6.96981 10.8554C6.8495 10.9175 6.45466 11.1062 6.58481 11.33C6.66138 11.4624 6.81997 11.5187 6.96544 11.5257C7.11091 11.5327 7.25419 11.4835 7.38325 11.412C7.99575 11.0722 8.04497 10.1792 7.92575 10.1113C7.80325 10.041 7.72013 10.2226 7.65669 10.2999C7.4638 10.5314 7.23044 10.7201 6.96981 10.8554Z" fill="#00796B"/>
<path d="M12.9158 9.23416C13.0864 8.22283 12.452 7.96971 12.452 7.96971C12.452 7.96971 12.043 7.89002 11.8505 9.02791C11.658 10.1646 12.067 10.2443 12.067 10.2443C12.067 10.2443 12.7441 10.2455 12.9158 9.23416Z" fill="#26A69A"/>
<path d="M12.6345 8.31533C12.7832 8.52861 12.6072 8.84385 12.3217 9.05362C12.2375 9.11572 12.1259 9.09229 12.1095 9.04072C12.0636 8.89307 12.0832 8.72549 12.1445 8.58369C12.3261 8.1583 12.559 8.20752 12.6345 8.31533Z" fill="#69F0AE"/>
<path d="M1.06692 9.26486C0.8952 8.25471 1.53067 8.00041 1.53067 8.00041C1.53067 8.00041 1.93973 7.92072 2.13223 9.05861C2.32473 10.1953 1.91567 10.275 1.91567 10.275C1.91567 10.275 1.23754 10.2762 1.06692 9.26486Z" fill="#26A69A"/>
<path d="M1.72584 8.34396C1.8724 8.46115 1.81224 8.61466 1.70177 8.72131C1.57599 8.84435 1.47974 8.97912 1.37255 9.11857C1.35615 9.13966 1.33755 9.1631 1.3113 9.16896C1.26099 9.18068 1.22052 9.1256 1.20412 9.07287C1.15709 8.92521 1.16584 8.75177 1.23584 8.61584C1.4349 8.22795 1.66896 8.29826 1.72584 8.34396Z" fill="#69F0AE"/>
<path d="M10.9364 10.214C10.861 10.6746 10.5164 10.9945 10.1653 10.9289C9.81425 10.8632 9.76613 10.4707 9.8416 10.0101C9.91706 9.54956 10.0866 9.19683 10.4366 9.26246C10.7877 9.32808 11.0119 9.75464 10.9364 10.214Z" fill="#F44336"/>
<path d="M3.32786 10.214C3.40333 10.6746 3.74786 10.9945 4.09895 10.9289C4.45005 10.8632 4.49817 10.4707 4.4227 10.0101C4.34724 9.54956 4.1777 9.19683 3.8277 9.26246C3.47771 9.32808 3.25349 9.75464 3.32786 10.214Z" fill="#F44336"/>
<path d="M3.8374 9.90699C3.75756 10.0031 3.56287 10.1964 3.49396 10.0488C3.3999 9.84723 3.53006 9.54254 3.67881 9.44176C3.82756 9.34098 3.94896 9.42066 3.96974 9.5109C3.9949 9.62574 3.90849 9.82027 3.8374 9.90699Z" fill="#FFA8A4"/>
<path d="M10.0599 10.2007C9.95162 10.1831 9.93959 9.78352 10.2305 9.46946C10.3694 9.31946 10.5685 9.49758 10.5182 9.73782C10.4701 9.96633 10.2579 10.2335 10.0599 10.2007Z" fill="#FFA8A4"/>
<path d="M11.9378 11.5085C11.2826 11.8601 9.77981 12.7964 7.00497 12.7964C4.23012 12.7964 2.72731 11.8601 2.07215 11.5085C2.07215 11.5085 1.837 11.6433 1.837 11.7839V12.8632C1.837 13.0074 1.90809 13.1398 2.02403 13.2136C2.5359 13.5371 4.09559 14.3011 7.00606 14.3011C9.91653 14.3011 11.4762 13.5371 11.9881 13.2136C12.045 13.1777 12.0922 13.1264 12.125 13.065C12.1578 13.0036 12.1751 12.934 12.1751 12.8632V11.7839C12.1729 11.6433 11.9378 11.5085 11.9378 11.5085Z" fill="#FFCA28"/>
<path d="M4.33066 12.9893C4.63691 13.0537 4.72988 13.0818 4.7091 13.2646C4.66645 13.6244 3.96973 13.5389 3.55738 13.4228C2.70535 13.1826 2.53254 12.9295 2.53254 12.7033C2.53254 12.4959 2.68129 12.4713 2.91098 12.558C3.18551 12.6623 3.60988 12.8381 4.33066 12.9893Z" fill="#FFF59D"/>
<path d="M11.9388 11.7457C11.9388 11.7457 10.1264 12.8449 7.00596 12.8449C3.88549 12.8449 2.07315 11.7457 2.07315 11.7457" stroke="#F19534" stroke-miterlimit="10" stroke-linecap="round"/>
<path d="M2.94994 5.80868C3.53182 5.36337 3.84463 4.56532 3.87197 3.29501C3.87416 3.18017 3.90479 3.14618 3.96276 3.13915C4.05572 3.12861 4.07104 3.21884 4.06994 3.28329C4.04369 4.65439 3.88072 5.51103 3.23541 5.99384C3.20369 6.01728 2.97729 6.16493 2.88104 6.06298C2.76619 5.94345 2.91276 5.83681 2.94994 5.80868Z" fill="#FFCA28"/>
<path d="M3.48325 1.82106C3.46466 1.60895 3.5106 1.22692 4.03013 1.05348C4.18216 1.00309 4.27622 1.08278 4.29372 1.14489C4.33747 1.29957 4.2106 1.36051 4.15263 1.38043C3.75341 1.51871 3.73372 1.732 3.65169 1.86793C3.56966 2.00387 3.48982 1.88551 3.48325 1.82106Z" fill="#FFCA28"/>
<path d="M8.55428 5.52765C9.08037 5.02726 9.42928 4.46828 9.65897 3.19562C9.67975 3.08312 9.71037 3.05265 9.76725 3.05499C9.86022 3.05734 9.86459 3.14992 9.85475 3.2132C9.66006 4.57023 9.47522 4.95695 8.82662 5.72687C8.75334 5.81359 8.57506 5.8921 8.47444 5.80187C8.38365 5.72101 8.48865 5.59093 8.55428 5.52765Z" fill="#FFCA28"/>
<path d="M9.33047 1.83162C9.31187 1.61951 9.35781 1.23748 9.87734 1.06404C10.0294 1.01365 10.1234 1.09334 10.1409 1.15545C10.1847 1.31013 10.0578 1.37107 9.99984 1.39099C9.60062 1.52927 9.58094 1.74255 9.4989 1.87849C9.41797 2.01443 9.33703 1.89607 9.33047 1.83162Z" fill="#FFCA28"/>
<path d="M3.45446 8.39246C2.18353 7.77488 1.80946 6.16355 1.6104 5.46394C1.58415 5.37136 1.59728 5.28347 1.68368 5.25535C1.77009 5.22722 1.82149 5.28699 1.84884 5.37957C1.99321 5.88699 2.55431 7.58152 3.71259 8.06316C3.79681 8.09831 3.92806 8.18386 3.85696 8.33035C3.80993 8.42527 3.65899 8.49207 3.45446 8.39246Z" fill="#FFF59D"/>
<path d="M1.3872 2.88615C1.32595 2.75021 1.3008 2.6213 0.967202 2.47247C0.882983 2.43497 0.827202 2.35177 0.850171 2.25802C0.87314 2.16427 0.96064 2.09396 1.08751 2.1174C1.49986 2.19357 1.58955 2.6424 1.60705 2.79826C1.62345 2.94826 1.44955 3.02208 1.3872 2.88615Z" fill="#FFF59D"/>
<path d="M10.5955 8.39246C11.8664 7.77488 12.2405 6.16355 12.4395 5.46394C12.4658 5.37136 12.4527 5.28347 12.3663 5.25535C12.2799 5.22722 12.2285 5.28699 12.2011 5.37957C12.0567 5.88699 11.4956 7.58152 10.3374 8.06316C10.2531 8.09831 10.1219 8.18386 10.193 8.33035C10.24 8.42527 10.391 8.49207 10.5955 8.39246Z" fill="#FFF59D"/>
<path d="M12.6636 2.88615C12.7248 2.75021 12.75 2.6213 13.0836 2.47247C13.1678 2.43497 13.2236 2.35177 13.2006 2.25802C13.1776 2.16427 13.0901 2.09396 12.9633 2.1174C12.5509 2.19357 12.4612 2.6424 12.4437 2.79826C12.4273 2.94826 12.6023 3.02208 12.6636 2.88615Z" fill="#FFF59D"/>
<path d="M6.49463 3.46347C6.56135 3.31699 6.67838 3.1166 7.0601 3.03222C7.20666 2.99941 7.24932 2.93144 7.23619 2.82832C7.20994 2.61386 6.96057 2.6291 6.82603 2.66308C6.3776 2.77558 6.27807 3.20214 6.25947 3.37089C6.24088 3.53144 6.429 3.60996 6.49463 3.46347Z" fill="#FFF59D"/>
</g>
<defs>
<clipPath id="clip0_2_798">
<rect width="14" height="15" fill="white"/>
</clipPath>
</defs>
</svg>
